<svg xmlns="http://www.w3.org/2000/svg" width="469" height="34.493" viewBox="0 0 469 34.493">
  <g id="Group_1222" data-name="Group 1222" transform="translate(-167.193 -11.775)">
    <path id="Path_1101" data-name="Path 1101" d="M170.97,14.333c0,.064-.119.147-.357.243a3.734,3.734,0,0,0-1.054.647c-.324.282-.487.514-.487.7q0,.033.066.033c.561,0,.841.254.841.76a2.108,2.108,0,0,1-.689,1.385,1.9,1.9,0,0,1-1.319.738.682.682,0,0,1-.78-.763,4.183,4.183,0,0,1,1.338-2.422q1.336-1.481,2.229-1.482C170.9,14.17,170.97,14.225,170.97,14.333Zm3.061,0c0,.086-.069.152-.21.194q-1.684.635-1.684,1.394c0,.022.014.033.047.033.561,0,.843.254.843.76a2.108,2.108,0,0,1-.689,1.385,1.9,1.9,0,0,1-1.322.738.681.681,0,0,1-.777-.763,4.174,4.174,0,0,1,1.336-2.422q1.34-1.481,2.229-1.482C173.957,14.17,174.032,14.225,174.032,14.333Z" transform="translate(0 4.229)" fill="#1c358b"/>
    <path id="Path_1102" data-name="Path 1102" d="M197.788,15.628c0,.086-.124.177-.371.274a8.667,8.667,0,0,0-3.623,2.862,62.666,62.666,0,0,0-4.593,7.8,19.989,19.989,0,0,1-2.8,4.187,15.676,15.676,0,0,1-3.62,2.846,13.858,13.858,0,0,1-7.049,2.234,6.566,6.566,0,0,1-4.781-1.717,6.179,6.179,0,0,1-1.764-4.649q0-5.268,5.412-9.173a9.607,9.607,0,0,1,3.733-5.832,10.527,10.527,0,0,1,6.7-2.511,3.7,3.7,0,0,1,2.536.819,2.8,2.8,0,0,1,.932,2.226,5.6,5.6,0,0,1-.713,2.447,5.517,5.517,0,0,0-.713,1.927,1.049,1.049,0,0,0,.357.81,1.215,1.215,0,0,0,.843.324,3.167,3.167,0,0,0,1.781-.711,5.416,5.416,0,0,0,1.59-1.8c.1-.141.194-.21.29-.21.163,0,.243.064.243.194q0,.357-.973,1.394a4.091,4.091,0,0,1-2.851,1.573,2.168,2.168,0,0,1-1.645-.675,2.316,2.316,0,0,1-.639-1.659,5.5,5.5,0,0,1,.7-2.237,6.291,6.291,0,0,0,.843-2.268,1.463,1.463,0,0,0-.755-1.289,3.594,3.594,0,0,0-1.952-.478,9.68,9.68,0,0,0-6.034,2.334,9.522,9.522,0,0,0-3.639,5.168,10.812,10.812,0,0,1,6.045-1.927,4.6,4.6,0,0,1,4.989,4.975,9.043,9.043,0,0,1-2.906,6.335,8.58,8.58,0,0,1-6.167,3,3.55,3.55,0,0,1-3.694-3.678,7.219,7.219,0,0,1,1.831-4.521,4.08,4.08,0,0,1-.827-2.481V21.4a13.153,13.153,0,0,0-2.973,3.943,10.111,10.111,0,0,0-1.189,4.563,5.471,5.471,0,0,0,1.441,4,5.147,5.147,0,0,0,3.858,1.474,9.473,9.473,0,0,0,6.382-2.558,17.137,17.137,0,0,0,2.389-2.552q.933-1.257,3.623-5.567a27.418,27.418,0,0,1,6.512-7.679,11.152,11.152,0,0,1,1.7-1.037,4.7,4.7,0,0,1,1.327-.553C197.719,15.432,197.788,15.5,197.788,15.628Zm-12.264,6.609a3.649,3.649,0,0,0-1.192-2.851,4.441,4.441,0,0,0-3.086-1.07,9.791,9.791,0,0,0-6.189,2.577,5.032,5.032,0,0,0-.033.6,3.323,3.323,0,0,0,.664,2.121,11.9,11.9,0,0,1,1.994-1.634,3.734,3.734,0,0,1,1.751-.78.226.226,0,0,1,.243.163c0,.086-.2.216-.583.39a8.494,8.494,0,0,0-3.128,2.268,3.36,3.36,0,0,0,2.624,1.167,5.971,5.971,0,0,0,2.926-.819,7.182,7.182,0,0,0,2.389-2.115.263.263,0,0,1,.194-.13c.174,0,.26.072.26.213q0,.34-1.054,1.278a6.789,6.789,0,0,1-4.715,1.961,3.919,3.919,0,0,1-2.934-1.181,6.556,6.556,0,0,0-1.587,4.082,3.327,3.327,0,0,0,.868,2.389,2.928,2.928,0,0,0,2.226.918q2.837,0,5.6-3.144A9.691,9.691,0,0,0,185.524,22.237Zm27.966-5.185q0,2.887-3.775,4.7a4.309,4.309,0,0,1-1.427.5c-.16,0-.243-.053-.243-.16a.221.221,0,0,1,.2-.227,7.648,7.648,0,0,0,3.271-1.961,4.043,4.043,0,0,0,1.247-2.821,2.6,2.6,0,0,0-.9-2.066,3.387,3.387,0,0,0-2.309-.785,6.843,6.843,0,0,0-3.628,1.076,22.513,22.513,0,0,0-4.295,3.833q-4.455,4.812-8.279,5.185a3.076,3.076,0,0,1,1.394,2.951,20.576,20.576,0,0,1-.81,4.048,9.32,9.32,0,0,0-.357,2.027,2.58,2.58,0,0,0,.689,1.856,2.324,2.324,0,0,0,1.759.722,2.722,2.722,0,0,0,1.717-.583.77.77,0,0,1,.373-.213c.138,0,.21.055.21.163,0,.227-.279.462-.835.705a3.858,3.858,0,0,1-1.532.365A3.594,3.594,0,0,1,193.123,35a4.853,4.853,0,0,1-1.167-3.249,13.862,13.862,0,0,1,.924-3.874,6.769,6.769,0,0,0,.47-2.088,1.866,1.866,0,0,0-.567-1.427,7.686,7.686,0,0,1-.94.064c-.874,0-1.314-.124-1.314-.371,0-.2.26-.293.78-.293a4.166,4.166,0,0,1,1.474.293,7.628,7.628,0,0,0,2.9-1.192,30.2,30.2,0,0,0,3.888-3.493,25.349,25.349,0,0,1,5.332-4.308,9.593,9.593,0,0,1,4.715-1.3,4.11,4.11,0,0,1,2.779.94A2.973,2.973,0,0,1,213.49,17.052Z" transform="translate(3.529 0.31)" fill="#1c358b"/>
    <path id="Path_1103" data-name="Path 1103" d="M192.948,25.839a.5.5,0,0,1-.18.324l-.7.94q-3.078,4.277-4.649,4.278a1.759,1.759,0,0,1-1.355-.575,2.069,2.069,0,0,1-.525-1.452,5.9,5.9,0,0,1,1.247-2.981,12.411,12.411,0,0,0,1.911-3.354.494.494,0,0,0-.55-.567q-.9,0-2.536,1.847a44.236,44.236,0,0,0-4.48,7.016,5.444,5.444,0,0,0-.924-.113,7.86,7.86,0,0,0-1.117.13l2.447-4.422q.5-.925,1.507-2.724.518-.859,3.271-5.572l2.5-4.248a4.88,4.88,0,0,0,.89.113,5.333,5.333,0,0,0,1.424-.227q-1.746,2.87-5.085,8.249-.1.162-2.74,4.131,3.082-4.554,4.911-4.554a1.606,1.606,0,0,1,1.289.625,2.289,2.289,0,0,1,.509,1.5,6.854,6.854,0,0,1-1.427,3.241A8.733,8.733,0,0,0,187,30.374c0,.423.2.633.583.633q1.2,0,4.084-4.035l.5-.7.293-.357a.3.3,0,0,1,.307-.21C192.887,25.709,192.948,25.753,192.948,25.839Z" transform="translate(21.009 4.374)" fill="#1c358b"/>
    <path id="Path_1104" data-name="Path 1104" d="M196.46,24.7a15.676,15.676,0,0,1-2.364,3.158q-1.962,2.352-3.111,2.351a1.671,1.671,0,0,1-1.305-.575,2.111,2.111,0,0,1-.512-1.452c0-.583-.03-.816-.1-.7a12.378,12.378,0,0,1-1.659,1.905,2.61,2.61,0,0,1-1.742.819,1.881,1.881,0,0,1-1.532-.763,2.947,2.947,0,0,1-.608-1.894q0-3.161,4.425-5.558a7.1,7.1,0,0,1,3.191-1.087q1.1,0,1.1,1.037c0,.2.053.105.16-.274l.357-.65a4.432,4.432,0,0,0,.94.13,9.043,9.043,0,0,0,1.3-.144l-2.917,4.859a9.081,9.081,0,0,0-1.491,3.274c0,.465.174.7.52.7.376,0,1.037-.484,1.974-1.449a26.4,26.4,0,0,0,2.884-3.639.3.3,0,0,1,.277-.21C196.391,24.54,196.46,24.593,196.46,24.7Zm-4.665-2.691c0-.487-.207-.73-.617-.73q-1.427,0-3.824,2.893t-2.4,4.676q0,.987.81.987,1.07,0,3.791-3.661Q191.793,23.112,191.795,22.013Zm6.512-5.9a17.121,17.121,0,0,1-4.082,2.284,11.883,11.883,0,0,1-2.221.827.288.288,0,0,1-.21-.08c0-.044.08-.113.243-.21a15.11,15.11,0,0,0,5.492-4.021Z" transform="translate(28.838 5.542)" fill="#1c358b"/>
    <path id="Path_1105" data-name="Path 1105" d="M207.085,20.876c0,.053-.064.144-.194.274l-.7.957q-3.078,4.277-4.6,4.278a1.686,1.686,0,0,1-1.338-.592,2.213,2.213,0,0,1-.509-1.5,3.083,3.083,0,0,1,.3-1.352,22.062,22.062,0,0,1,1.5-2.359,6.766,6.766,0,0,0,1.361-2.528c0-.4-.182-.6-.55-.6q-2.041,0-7.276,8.8a4.831,4.831,0,0,0-.957-.08,8.82,8.82,0,0,0-1.311.1l2.364-3.761q2.252-3.563,2.254-4.391c0-.442-.163-.664-.487-.664q-.825,0-2.834,2.544a44.3,44.3,0,0,0-4.035,6.255,5.744,5.744,0,0,0-1.02-.08,8.61,8.61,0,0,0-1.28.1l2.381-3.761q2.4-3.725,2.4-4.632c0-.282-.086-.423-.26-.423q-.726,0-3.175,3.435a.561.561,0,0,1-.407.277c-.1-.044-.144-.1-.144-.163a12.2,12.2,0,0,1,1.5-2.049q1.5-1.871,2.356-1.872a1.185,1.185,0,0,1,.99.528,1.987,1.987,0,0,1,.387,1.206c0,.617.072.8.21.553q1.556-2.286,3.064-2.287a1.481,1.481,0,0,1,1.2.575,2.162,2.162,0,0,1,.47,1.419q0,.925.326.39,1.717-2.381,3.321-2.384a1.563,1.563,0,0,1,1.264.625,2.313,2.313,0,0,1,.5,1.5,3.534,3.534,0,0,1-.362,1.524,29.01,29.01,0,0,1-1.839,2.917,3.734,3.734,0,0,0-.78,1.764c0,.4.185.6.553.6q1.182,0,4.065-4.035l.5-.7.29-.357a.284.284,0,0,1,.277-.21C207.01,20.713,207.085,20.765,207.085,20.876Z" transform="translate(36.329 9.369)" fill="#1c358b"/>
    <path id="Path_1106" data-name="Path 1106" d="M207.2,20.843q0,.212-1.054,1.28A3.873,3.873,0,0,1,203.6,23.63a1.325,1.325,0,0,1-1.214-.666A14.506,14.506,0,0,1,200.13,25.6a2.974,2.974,0,0,1-1.911.785,2.014,2.014,0,0,1-1.482-.592,1.954,1.954,0,0,1-.592-1.435,6.2,6.2,0,0,1,1.1-2.8l2.577-4.361c.595.066.976.1,1.15.1a5.2,5.2,0,0,0,1.15-.13l-3.468,5.605a6.432,6.432,0,0,0-1.117,2.544c0,.465.246.7.744.7a2.385,2.385,0,0,0,1.549-.713,22.87,22.87,0,0,0,2.356-2.7,3.571,3.571,0,0,1-.13-.86,6.208,6.208,0,0,1,.907-3.053q.908-1.6,1.847-1.6a.468.468,0,0,1,.52.536q0,1.2-2.691,5.005a1.007,1.007,0,0,0,.957.666q1.149,0,2.884-2.14c.238-.29.415-.437.534-.437S207.2,20.757,207.2,20.843Z" transform="translate(51.11 9.369)" fill="#1c358b"/>
    <path id="Path_1107" data-name="Path 1107" d="M208.255,22.936a8.713,8.713,0,0,1-1.914,4,1.213,1.213,0,0,0,.6.147,2.96,2.96,0,0,0,1.629-.664,6.285,6.285,0,0,0,1.562-1.6c.163-.185.288-.277.373-.277.119,0,.18.044.18.13,0,.183-.332.6-.99,1.247a4.055,4.055,0,0,1-2.7,1.457,1.94,1.94,0,0,1-.86-.16q-2.091,2.995-4.068,3a2.236,2.236,0,0,1-1.742-.827,2.9,2.9,0,0,1-.719-1.961q0-2.514,3.321-4.845a7.191,7.191,0,0,1,3.855-1.67,1.354,1.354,0,0,1,1.507,1.557V22.45c-.019.011.006-.011.083-.064a3,3,0,0,0,.907-.666c0-.008-.011-.014-.033-.014-.442-.044-.647-.271-.617-.683a1.762,1.762,0,0,1,.65-1.084,1.507,1.507,0,0,1,1.117-.5.563.563,0,0,1,.567.68A3.117,3.117,0,0,1,209.825,22a4.528,4.528,0,0,1-1.6.957Q208.2,22.953,208.255,22.936Zm-.423-.437q0-1.249-1.084-1.247-1.394,0-3.493,2.793t-2.1,4.707q0,1.054.94,1.054,1.684,0,3.711-2.818a1.512,1.512,0,0,1-.47-1.07,2.8,2.8,0,0,1,.655-1.676,1.773,1.773,0,0,1,1.322-.868c.238,0,.368.033.387.1A2.472,2.472,0,0,0,207.832,22.5Zm5.592-6.385a17.535,17.535,0,0,1-4.084,2.284,11.807,11.807,0,0,1-2.221.827.292.292,0,0,1-.21-.08c0-.044.083-.113.243-.21a15.256,15.256,0,0,0,5.492-4.021Z" transform="translate(57.213 5.542)" fill="#1c358b"/>
    <path id="Path_1108" data-name="Path 1108" d="M210.428,23.224c0,.053-.064.144-.194.274l-.68.957q-3.094,4.277-4.748,4.278a1.829,1.829,0,0,1-1.377-.559,1.948,1.948,0,0,1-.534-1.4,6.613,6.613,0,0,1,1.134-2.868l2.561-4.361a4.268,4.268,0,0,0,.857.13,11.056,11.056,0,0,0,1.41-.144l-3.744,6.156a4.291,4.291,0,0,0-.794,2.01.58.58,0,0,0,.65.664q1.377,0,4.958-5.088a.3.3,0,0,1,.274-.21C210.353,23.061,210.428,23.113,210.428,23.224Zm-.243-6.709a1.57,1.57,0,0,1-.5,1.1,1.545,1.545,0,0,1-1.134.52c-.564,0-.843-.265-.843-.794a1.519,1.519,0,0,1,.517-1.07,1.6,1.6,0,0,1,1.15-.52C209.916,15.752,210.184,16.006,210.184,16.515Z" transform="translate(63.026 7.022)" fill="#1c358b"/>
    <path id="Path_1109" data-name="Path 1109" d="M216.723,20.876a16.67,16.67,0,0,1-2.3,2.754q-2.51,2.754-4.342,2.754a2.679,2.679,0,0,1-2.033-.893,2.973,2.973,0,0,1-.835-2.1,4.745,4.745,0,0,1,1.117-2.846,9.825,9.825,0,0,1,3-2.536,5.623,5.623,0,0,1,2.641-.924q1.3,0,1.3,1.493a4.1,4.1,0,0,1-.76,2.276q-.763,1.141-1.6,1.142c-.561,0-.843-.265-.843-.794q0-.892,1.54-1.637a1.647,1.647,0,0,0,1.117-1.444.594.594,0,0,0-.68-.664q-1.265,0-3.216,2.641a8.108,8.108,0,0,0-1.952,4.458q0,1.456,1.311,1.457a4.837,4.837,0,0,0,2.691-1.377,19.425,19.425,0,0,0,3.288-3.614q.228-.307.423-.307C216.676,20.757,216.723,20.81,216.723,20.876Z" transform="translate(70.648 9.369)" fill="#1c358b"/>
    <path id="Path_1110" data-name="Path 1110" d="M223.264,25.839a.49.49,0,0,1-.177.324l-.7.94q-3.082,4.277-4.651,4.278a1.758,1.758,0,0,1-1.352-.575,2.071,2.071,0,0,1-.528-1.452,5.923,5.923,0,0,1,1.247-2.981,12.465,12.465,0,0,0,1.914-3.354.5.5,0,0,0-.55-.567q-.908,0-2.536,1.847a43.838,43.838,0,0,0-4.48,7.016,5.475,5.475,0,0,0-.924-.113,7.93,7.93,0,0,0-1.12.13l2.447-4.422q.5-.925,1.507-2.724.518-.859,3.274-5.572l2.494-4.248a4.908,4.908,0,0,0,.89.113,5.352,5.352,0,0,0,1.427-.227q-1.751,2.87-5.088,8.249-.1.162-2.738,4.131,3.078-4.554,4.908-4.554a1.6,1.6,0,0,1,1.289.625,2.291,2.291,0,0,1,.512,1.5,6.854,6.854,0,0,1-1.427,3.241,8.675,8.675,0,0,0-1.587,2.931c0,.423.194.633.583.633q1.2,0,4.082-4.035l.5-.7.29-.357a.305.305,0,0,1,.31-.21C223.206,25.709,223.264,25.753,223.264,25.839Z" transform="translate(74.527 4.374)" fill="#1c358b"/>
    <path id="Path_1111" data-name="Path 1111" d="M226.066,20.812a14.466,14.466,0,0,1-2.381,3.158q-2,2.352-3.177,2.351a1.664,1.664,0,0,1-1.286-.592,2.087,2.087,0,0,1-.528-1.435c0-.42-.028-.583-.08-.484a15.845,15.845,0,0,1-1.557,1.731,2.415,2.415,0,0,1-1.571.78,1.65,1.65,0,0,1-1.3-.575,2.083,2.083,0,0,1-.5-1.419,4.419,4.419,0,0,1,.727-2.171l3-5.025a5.284,5.284,0,0,0,.94.13,11.62,11.62,0,0,0,1.264-.144l-3.9,6.465a3.381,3.381,0,0,0-.6,1.7c0,.442.174.664.52.664q1.539,0,5.119-6.059l1.654-2.757a4.141,4.141,0,0,0,.89.13,9.714,9.714,0,0,0,1.33-.144l-2.641,4.342q-1.867,3-1.864,3.855c0,.423.183.633.55.633q1.232,0,4.1-4.035l.52-.7.277-.357a.3.3,0,0,1,.274-.21C225.991,20.649,226.066,20.7,226.066,20.812Z" transform="translate(82.079 9.433)" fill="#1c358b"/>
    <path id="Path_1112" data-name="Path 1112" d="M233.983,20.812a10.029,10.029,0,0,1-1.8,2.251,19.86,19.86,0,0,1-5.152,3.921l-.777,1.41a21.354,21.354,0,0,1-4.925,6.286q-2.709,2.157-4.684,2.154a1.677,1.677,0,0,1-1.2-.437,1.412,1.412,0,0,1-.47-1.084q0-3.289,7.549-6.789c.423-.207,1.042-.492,1.864-.86l.194-.13,2.027-3.612a11.391,11.391,0,0,1-1.452,1.659,2.352,2.352,0,0,1-1.612.738,1.611,1.611,0,0,1-1.247-.592,2.017,2.017,0,0,1-.517-1.369,6.7,6.7,0,0,1,1.167-2.9l2.528-4.278a5.1,5.1,0,0,0,.924.08,9.732,9.732,0,0,0,1.344-.144l-3.258,5.3a8.076,8.076,0,0,0-1.361,2.868c0,.442.183.664.55.664q1.684,0,5.265-6.158l1.54-2.608a5.418,5.418,0,0,0,.973.08,7.918,7.918,0,0,0,1.264-.144q-2.091,3.3-5.4,9.25a14.991,14.991,0,0,0,3-2.049,26.05,26.05,0,0,0,3.056-3.329q.257-.34.39-.34C233.911,20.649,233.983,20.7,233.983,20.812Zm-9.706,7.226-1.524.777q-7.321,3.629-7.323,6.529c0,.769.415,1.15,1.247,1.15a4.641,4.641,0,0,0,3.338-1.847,36.018,36.018,0,0,0,4.181-6.479Z" transform="translate(84.355 9.433)" fill="#1c358b"/>
    <path id="Path_1113" data-name="Path 1113" d="M230.974,24.744c0,.053-.108.2-.324.437l-.7.874q-3.389,4.2-5.835,4.2a2.632,2.632,0,0,1-2.016-.843,2.94,2.94,0,0,1-.785-2.091q0-2.949,4.131-5.185A7.882,7.882,0,0,1,229,20.95a1.606,1.606,0,0,1,1.062.373,1.129,1.129,0,0,1,.445.89,2.382,2.382,0,0,1-1.54,2.027,19.943,19.943,0,0,1-5.1,1.54,5.291,5.291,0,0,0-1.051,2.738q0,1.327,1.377,1.327,2.493,0,6.172-4.958a.616.616,0,0,1,.47-.307C230.924,24.625,230.974,24.678,230.974,24.744Zm-1.587-3a.4.4,0,0,0-.456-.454,3.91,3.91,0,0,0-2.179,1.172,16.628,16.628,0,0,0-2.616,2.909,11.563,11.563,0,0,0,3.645-1.6Q229.385,22.7,229.386,21.746Zm3.111-6.855q-.195,2.348-.31,4.278c0,.13-.058.194-.177.194s-.191-.144-.21-.437a6.467,6.467,0,0,0-.31-1.864,23.156,23.156,0,0,1-2.859,1.46,8.83,8.83,0,0,1-2.519.874c-.141,0-.21-.05-.21-.147a1.074,1.074,0,0,1,.274-.16,22.831,22.831,0,0,0,3.589-1.9A11.619,11.619,0,0,0,232.5,14.891Z" transform="translate(95.547 5.502)" fill="#1c358b"/>
    <path id="Path_1114" data-name="Path 1114" d="M238.6,20.876a15.63,15.63,0,0,1-2.367,3.158q-1.958,2.352-3.128,2.351a1.673,1.673,0,0,1-1.311-.592,2.107,2.107,0,0,1-.52-1.435,3.055,3.055,0,0,1,.3-1.352,26.162,26.162,0,0,1,1.587-2.528,6.93,6.93,0,0,0,1.289-2.422.524.524,0,0,0-.584-.6q-2.269,0-7.226,8.783c-.583-.044-.924-.064-1.023-.064a10.351,10.351,0,0,0-1.247.08l2.594-4.1q2.153-3.4,2.154-4.275,0-.423-.29-.423-.763,0-3.161,3.435a1.315,1.315,0,0,1-.29.277c-.163,0-.243-.055-.243-.163a.248.248,0,0,1,.064-.16l.307-.39q2.514-3.368,3.451-3.371a1.273,1.273,0,0,1,1.023.528,1.93,1.93,0,0,1,.42,1.239,5.432,5.432,0,0,1-1.427,2.851,28.08,28.08,0,0,1,2.951-3.62,3.023,3.023,0,0,1,1.991-1,1.608,1.608,0,0,1,1.3.608,2.254,2.254,0,0,1,.5,1.482,7.335,7.335,0,0,1-1.507,3.338,8.3,8.3,0,0,0-1.507,2.9c0,.4.183.6.55.6q1.377,0,4.861-5.088a.284.284,0,0,1,.277-.21C238.525,20.713,238.6,20.765,238.6,20.876Z" transform="translate(100.934 9.369)" fill="#1c358b"/>
    <path id="Path_1115" data-name="Path 1115" d="M247.716,20.876a10.01,10.01,0,0,1-1.767,2.251A19.378,19.378,0,0,1,240.863,27l-.78,1.46a20.5,20.5,0,0,1-4.933,6.269q-2.7,2.174-4.673,2.171a1.734,1.734,0,0,1-1.233-.437,1.419,1.419,0,0,1-.467-1.084q0-3.356,7.549-6.789,1.622-.73,2.057-.99l2.124-3.888a15.311,15.311,0,0,1-1.734,1.977,2.34,2.34,0,0,1-1.587.7,1.864,1.864,0,0,1-1.532-.78,2.9,2.9,0,0,1-.608-1.844q0-2.8,3.678-5.138a8.376,8.376,0,0,1,3.938-1.54q1.07,0,1.07,1.137c0,.194.064.086.194-.326l.39-.7a3.846,3.846,0,0,0,.841.13,11.07,11.07,0,0,0,1.394-.144q-.162.257-1.491,2.544l-3.888,6.689a17.389,17.389,0,0,0,3.069-2.129,22.907,22.907,0,0,0,2.859-3.2c.207-.249.362-.373.47-.373C247.669,20.757,247.716,20.81,247.716,20.876Zm-9.657,7.259c.011-.011-.492.235-1.507.744q-7.354,3.629-7.356,6.529a1.037,1.037,0,0,0,.357.8,1.23,1.23,0,0,0,.857.324,4.734,4.734,0,0,0,3.4-1.8,33.586,33.586,0,0,0,4.181-6.5Zm5.282-9.916q0-.763-.68-.763-1.394,0-3.775,2.893T236.5,24.991q0,1.02.81,1.02.908,0,3.161-2.834Q243.34,19.531,243.341,18.219Z" transform="translate(108.714 9.369)" fill="#1c358b"/>
    <path id="Path_1116" data-name="Path 1116" d="M242.446,23.224c0,.053-.066.144-.194.274l-.683.957q-3.094,4.277-4.745,4.278a1.829,1.829,0,0,1-1.377-.559,1.95,1.95,0,0,1-.536-1.4,6.648,6.648,0,0,1,1.134-2.868l2.561-4.361a4.288,4.288,0,0,0,.86.13,11.151,11.151,0,0,0,1.41-.144l-3.744,6.156a4.293,4.293,0,0,0-.794,2.01.579.579,0,0,0,.647.664q1.377,0,4.958-5.088a.3.3,0,0,1,.276-.21C242.371,23.061,242.446,23.113,242.446,23.224Zm-.243-6.709a1.573,1.573,0,0,1-.5,1.1,1.541,1.541,0,0,1-1.134.52c-.561,0-.841-.265-.841-.794a1.519,1.519,0,0,1,.517-1.07,1.6,1.6,0,0,1,1.15-.52C241.931,15.752,242.2,16.006,242.2,16.515Z" transform="translate(119.543 7.022)" fill="#1c358b"/>
    <path id="Path_1117" data-name="Path 1117" d="M250.015,20.876a15.63,15.63,0,0,1-2.367,3.158q-1.958,2.352-3.111,2.351a1.669,1.669,0,0,1-1.3-.575,2.111,2.111,0,0,1-.512-1.452c0-.583-.033-.816-.1-.7a12.386,12.386,0,0,1-1.662,1.905,2.6,2.6,0,0,1-1.739.819,1.877,1.877,0,0,1-1.532-.763,2.931,2.931,0,0,1-.608-1.894q0-3.161,4.425-5.558a7.085,7.085,0,0,1,3.191-1.087c.736,0,1.1.346,1.1,1.037,0,.2.055.105.163-.274l.357-.65a4.432,4.432,0,0,0,.94.13,9.085,9.085,0,0,0,1.3-.144L245.64,22.04a9.028,9.028,0,0,0-1.491,3.274c0,.465.171.7.517.7q.568,0,1.977-1.449a26.4,26.4,0,0,0,2.884-3.639.3.3,0,0,1,.277-.21C249.946,20.713,250.015,20.765,250.015,20.876Zm-4.668-2.691q0-.73-.614-.73-1.427,0-3.824,2.893t-2.4,4.676c0,.658.268.987.81.987q1.07,0,3.791-3.661Q245.348,19.285,245.347,18.185Z" transform="translate(123.381 9.369)" fill="#1c358b"/>
    <path id="Path_1118" data-name="Path 1118" d="M251.991,18.809c0,.149-.459.371-1.377.655a7.674,7.674,0,0,1-2.091.429,6.289,6.289,0,0,1-1.394-.16,5.775,5.775,0,0,0-1.231-.2,2.7,2.7,0,0,0-1.217.293.206.206,0,0,1-.177.064c-.119,0-.18-.041-.18-.13,0-.149.437-.376,1.305-.68a6.674,6.674,0,0,1,1.889-.454,8.349,8.349,0,0,1,1.424.243,6.925,6.925,0,0,0,1.264.2,3.069,3.069,0,0,0,1.361-.31.485.485,0,0,1,.243-.08C251.931,18.679,251.991,18.723,251.991,18.809Z" transform="translate(136.165 12.1)" fill="#1c358b"/>
    <path id="Path_1119" data-name="Path 1119" d="M269.53,16.325a15.059,15.059,0,0,1-1.731-.517q-2.107-.618-3.177-.89-1.41-.278-2.414-.373c-.108-.011-.26-.017-.453-.017h-.664a7.4,7.4,0,0,1,.55,3.031,9.736,9.736,0,0,1-2.608,6.239l-.277.257a6.86,6.86,0,0,1-4.278,2.481,3.208,3.208,0,0,1-.957.017,2.637,2.637,0,0,1-2.511-2.187,3.584,3.584,0,0,1-.1-1.217,6.68,6.68,0,0,1,1-3.045c-.041.075.044-.077.26-.454a12.358,12.358,0,0,1,7.972-5.688,3.857,3.857,0,0,0-3.047-1.67,6.728,6.728,0,0,0-3.872.957,10.173,10.173,0,0,0-3.078,2.674v.033l-.31.194a.209.209,0,0,1-.227-.194v-.033a1.338,1.338,0,0,1,.326-.567c.42-.442.733-.758.938-.94a11.953,11.953,0,0,1,2.821-1.969,6.471,6.471,0,0,1,3.371-.655,4.692,4.692,0,0,1,3.708,2.041,13.831,13.831,0,0,1,4-.21,18.8,18.8,0,0,1,2.154.307q.585.145,1.734.487.826.257,1.645.487t1.629.454c.614-.227,1.253-.429,1.911-.6a17.057,17.057,0,0,1,2.721-.487,9.374,9.374,0,0,1,.94-.033q.7,0,1.02.033a8.5,8.5,0,0,1,2.221.423,1.668,1.668,0,0,1,.987.924.918.918,0,0,1,.05.371,1.052,1.052,0,0,1-.63.94,5.631,5.631,0,0,1-1.087.454,11.355,11.355,0,0,1-3.921.31,20.2,20.2,0,0,1-2.414-.31q-1.021-.178-2.691-.647a23.207,23.207,0,0,0-2.574,1.667,24.957,24.957,0,0,0-5.121,5.088l-.227.243a29.437,29.437,0,0,0-2.091,3.824,10.121,10.121,0,0,0-.89,3.515,4.2,4.2,0,0,0,1.184,3.534.215.215,0,0,0,.089.1,1.267,1.267,0,0,0,.122.064,3.233,3.233,0,0,0,1.49.794,5.549,5.549,0,0,0,1.75.277,5.047,5.047,0,0,1-1.054-3.6,7.866,7.866,0,0,1,1.029-3.573,13.771,13.771,0,0,1,2.276-2.956,10.132,10.132,0,0,1,6.628-3.3,3.154,3.154,0,0,1,2.461.711,3.668,3.668,0,0,1,.747,2.771,7.794,7.794,0,0,1-1.095,3.728,13.541,13.541,0,0,1-2.453,3.031,12.972,12.972,0,0,1-7.245,3.6,4.934,4.934,0,0,0,3.21.711,7.156,7.156,0,0,0,4.245-1.667.453.453,0,0,1,.323-.18c.141,0,.21.083.21.243,0,.2-.166.4-.5.583a9.351,9.351,0,0,1-1.36.713,12.322,12.322,0,0,1-1.621.6,6.076,6.076,0,0,1-1.294.227,5.589,5.589,0,0,1-4-1.134,7.509,7.509,0,0,1-3.141-.454,5.57,5.57,0,0,1-2.821-2.447,6.639,6.639,0,0,1-.94-3.841,9.363,9.363,0,0,1,.738-3.175,15.1,15.1,0,0,1,1.6-2.884l.113-.21A21.651,21.651,0,0,1,269.53,16.325Zm-9.073-1.781a9.186,9.186,0,0,0-4.413,1.709,14.154,14.154,0,0,0-3.316,3.476l-.257.387a6.782,6.782,0,0,0-1.087,3.274,3.462,3.462,0,0,0,.08.713,2.183,2.183,0,0,0,1.994,1.88,4.179,4.179,0,0,0,2.478-.683,10.024,10.024,0,0,0,2.561-2.445l.21-.227a10.661,10.661,0,0,0,2.157-5.8A6,6,0,0,0,260.457,14.544ZM265.545,35.8a8.144,8.144,0,0,0,3.775-1.181,18.157,18.157,0,0,0,3.224-2.447,16.825,16.825,0,0,0,2.489-2.989,7.382,7.382,0,0,0,1.255-3.7,2.583,2.583,0,0,0-.6-1.944,2.352,2.352,0,0,0-1.928-.583,5.747,5.747,0,0,0-3.185,1.142,17.067,17.067,0,0,0-2.6,2.276,17.78,17.78,0,0,0-2.154,2.964,7.438,7.438,0,0,0-1.037,3.484A4.333,4.333,0,0,0,265.545,35.8Zm7.632-20.123.608.2a5.2,5.2,0,0,0,.639.171,19.946,19.946,0,0,0,3.985.777,5.5,5.5,0,0,0,2.107-.163c.539-.138.81-.365.81-.68.022-.238-.216-.481-.714-.727a5.484,5.484,0,0,0-1.961-.44,13.676,13.676,0,0,0-2.494.033l-.185.033a.872.872,0,0,1-.155.017c-.747.171-1.15.268-1.217.29C274.267,15.3,273.794,15.462,273.178,15.678Z" transform="translate(145.506)" fill="#1c358b"/>
    <path id="Path_1120" data-name="Path 1120" d="M272.187,24.744a15.633,15.633,0,0,1-2.367,3.158q-1.958,2.352-3.111,2.351a1.669,1.669,0,0,1-1.3-.575,2.111,2.111,0,0,1-.512-1.452c0-.583-.033-.816-.1-.7a12.539,12.539,0,0,1-1.662,1.905,2.611,2.611,0,0,1-1.742.819,1.875,1.875,0,0,1-1.529-.763,2.931,2.931,0,0,1-.608-1.894q0-3.161,4.424-5.558a7.085,7.085,0,0,1,3.191-1.087c.735,0,1.1.346,1.1,1.037,0,.2.055.105.163-.274l.357-.65a4.409,4.409,0,0,0,.94.13,9.016,9.016,0,0,0,1.294-.144l-2.915,4.859a9.028,9.028,0,0,0-1.491,3.274c0,.465.171.7.517.7q.568,0,1.977-1.449a26.405,26.405,0,0,0,2.884-3.639.3.3,0,0,1,.277-.21C272.115,24.581,272.187,24.633,272.187,24.744Zm-4.668-2.691q0-.73-.614-.73-1.427,0-3.825,2.893t-2.4,4.676c0,.658.268.987.81.987q1.066,0,3.791-3.661Q267.52,23.152,267.519,22.053Zm-3,10.03a1.636,1.636,0,0,1-.484,1.159,1.506,1.506,0,0,1-1.12.509q-.908,0-.907-.824a1.525,1.525,0,0,1,.52-1.1,1.606,1.606,0,0,1,1.15-.512C264.242,31.32,264.521,31.574,264.521,32.083Zm6.449-17.192q-.195,2.348-.29,4.278c0,.13-.061.194-.18.194s-.2-.144-.227-.437a6.4,6.4,0,0,0-.307-1.864,23.158,23.158,0,0,1-2.859,1.46,8.857,8.857,0,0,1-2.519.874c-.141,0-.21-.05-.21-.147a1.024,1.024,0,0,1,.274-.16,22.954,22.954,0,0,0,3.589-1.9A11.543,11.543,0,0,0,270.97,14.891Z" transform="translate(162.522 5.502)" fill="#1c358b"/>
    <path id="Path_1121" data-name="Path 1121" d="M277.735,20.876a15.676,15.676,0,0,1-2.364,3.158q-1.962,2.352-3.128,2.351a1.679,1.679,0,0,1-1.314-.592,2.1,2.1,0,0,1-.517-1.435,3.092,3.092,0,0,1,.3-1.352,27,27,0,0,1,1.59-2.528,6.954,6.954,0,0,0,1.286-2.422.522.522,0,0,0-.583-.6q-2.265,0-7.226,8.783c-.583-.044-.923-.064-1.02-.064a10.315,10.315,0,0,0-1.247.08l2.591-4.1q2.157-3.4,2.157-4.275c0-.282-.1-.423-.293-.423q-.759,0-3.158,3.435a1.255,1.255,0,0,1-.293.277c-.16,0-.243-.055-.243-.163a.252.252,0,0,1,.066-.16l.307-.39q2.514-3.368,3.451-3.371a1.264,1.264,0,0,1,1.02.528,1.917,1.917,0,0,1,.423,1.239,5.432,5.432,0,0,1-1.427,2.851,28.12,28.12,0,0,1,2.948-3.62,3.029,3.029,0,0,1,1.994-1,1.612,1.612,0,0,1,1.3.608,2.252,2.252,0,0,1,.5,1.482,7.32,7.32,0,0,1-1.5,3.338,8.245,8.245,0,0,0-1.507,2.9c0,.4.183.6.55.6q1.377,0,4.862-5.088a.279.279,0,0,1,.274-.21C277.666,20.713,277.735,20.765,277.735,20.876Z" transform="translate(170.031 9.369)" fill="#1c358b"/>
    <path id="Path_1122" data-name="Path 1122" d="M278.02,19.119l-.194.373H275.7l-3.581,6.125a3.769,3.769,0,0,0-.664,1.767.579.579,0,0,0,.647.664q1.41,0,4.861-5.088a.367.367,0,0,1,.31-.21c.138,0,.21.053.21.163,0,.053-.061.144-.18.274l-.68.957q-3.094,4.277-4.682,4.278a1.8,1.8,0,0,1-1.377-.575,2.009,2.009,0,0,1-.536-1.419,5.208,5.208,0,0,1,.86-2.447l2.674-4.488h-1.654l.243-.373h1.621l1.911-3.158a4.237,4.237,0,0,0,.99.147,4.985,4.985,0,0,0,1.134-.18l-1.9,3.191Z" transform="translate(181.543 7.332)" fill="#1c358b"/>
    <path id="Path_1123" data-name="Path 1123" d="M285.095,24.744A15.673,15.673,0,0,1,282.73,27.9q-1.962,2.352-3.111,2.351a1.671,1.671,0,0,1-1.305-.575,2.112,2.112,0,0,1-.512-1.452c0-.583-.03-.816-.1-.7a12.525,12.525,0,0,1-1.659,1.905,2.61,2.61,0,0,1-1.742.819,1.877,1.877,0,0,1-1.532-.763,2.931,2.931,0,0,1-.608-1.894q0-3.161,4.425-5.558a7.085,7.085,0,0,1,3.191-1.087q1.1,0,1.1,1.037c0,.2.053.105.16-.274l.357-.65a4.431,4.431,0,0,0,.94.13,9.045,9.045,0,0,0,1.3-.144l-2.917,4.859a9.08,9.08,0,0,0-1.49,3.274c0,.465.171.7.517.7q.568,0,1.977-1.449a26.412,26.412,0,0,0,2.884-3.639.3.3,0,0,1,.277-.21C285.026,24.581,285.095,24.633,285.095,24.744Zm-4.668-2.691q0-.73-.614-.73-1.427,0-3.824,2.893t-2.4,4.676c0,.658.268.987.81.987q1.07,0,3.791-3.661Q280.428,23.152,280.427,22.053Zm3.454-7.162q-.212,2.348-.31,4.278c0,.13-.058.194-.177.194s-.191-.144-.21-.437a6.461,6.461,0,0,0-.31-1.864,22.983,22.983,0,0,1-2.868,1.46,8.984,8.984,0,0,1-2.511.874c-.152,0-.227-.05-.227-.147a1.11,1.11,0,0,1,.29-.16,23.509,23.509,0,0,0,3.581-1.9A11.568,11.568,0,0,0,283.881,14.891Z" transform="translate(185.308 5.502)" fill="#1c358b"/>
    <path id="Path_1124" data-name="Path 1124" d="M295.722,20.876c0,.053-.066.144-.2.274l-.7.957q-3.078,4.277-4.6,4.278a1.685,1.685,0,0,1-1.336-.592,2.215,2.215,0,0,1-.512-1.5,3.086,3.086,0,0,1,.3-1.352,22.061,22.061,0,0,1,1.5-2.359,6.766,6.766,0,0,0,1.361-2.528c0-.4-.182-.6-.55-.6q-2.041,0-7.276,8.8a4.85,4.85,0,0,0-.957-.08,8.819,8.819,0,0,0-1.311.1l2.364-3.761q2.252-3.563,2.254-4.391c0-.442-.163-.664-.487-.664q-.825,0-2.837,2.544a44.8,44.8,0,0,0-4.035,6.255,5.7,5.7,0,0,0-1.02-.08,8.665,8.665,0,0,0-1.28.1l2.384-3.761q2.4-3.725,2.4-4.632c0-.282-.086-.423-.26-.423q-.73,0-3.174,3.435a.561.561,0,0,1-.406.277c-.1-.044-.147-.1-.147-.163a12.407,12.407,0,0,1,1.5-2.049q1.5-1.871,2.359-1.872a1.177,1.177,0,0,1,.987.528,1.972,1.972,0,0,1,.39,1.206c0,.617.069.8.21.553q1.556-2.286,3.064-2.287a1.485,1.485,0,0,1,1.2.575,2.161,2.161,0,0,1,.47,1.419q0,.925.324.39,1.717-2.381,3.324-2.384a1.567,1.567,0,0,1,1.264.625,2.313,2.313,0,0,1,.5,1.5,3.5,3.5,0,0,1-.365,1.524,28.492,28.492,0,0,1-1.839,2.917,3.752,3.752,0,0,0-.777,1.764c0,.4.182.6.55.6q1.182,0,4.068-4.035l.5-.7.29-.357a.284.284,0,0,1,.277-.21C295.644,20.713,295.722,20.765,295.722,20.876Z" transform="translate(192.797 9.369)" fill="#1c358b"/>
    <path id="Path_1125" data-name="Path 1125" d="M299.292,20.876a15.674,15.674,0,0,1-2.364,3.158q-1.962,2.352-3.128,2.351a1.675,1.675,0,0,1-1.314-.592,2.1,2.1,0,0,1-.517-1.435,3.093,3.093,0,0,1,.3-1.352,26.775,26.775,0,0,1,1.587-2.528,6.929,6.929,0,0,0,1.288-2.422.522.522,0,0,0-.583-.6q-2.269,0-7.226,8.783c-.583-.044-.924-.064-1.02-.064a10.317,10.317,0,0,0-1.247.08l2.591-4.1q2.157-3.4,2.154-4.275,0-.423-.29-.423-.763,0-3.161,3.435a1.312,1.312,0,0,1-.29.277c-.163,0-.243-.055-.243-.163a.264.264,0,0,1,.064-.16l.31-.39q2.51-3.368,3.451-3.371a1.272,1.272,0,0,1,1.02.528,1.93,1.93,0,0,1,.42,1.239,5.443,5.443,0,0,1-1.424,2.851,28.134,28.134,0,0,1,2.948-3.62,3.023,3.023,0,0,1,1.994-1,1.607,1.607,0,0,1,1.294.608,2.239,2.239,0,0,1,.5,1.482A7.333,7.333,0,0,1,294.9,22.51a8.3,8.3,0,0,0-1.507,2.9c0,.4.185.6.55.6q1.381,0,4.861-5.088a.284.284,0,0,1,.277-.21C299.223,20.713,299.292,20.765,299.292,20.876Z" transform="translate(208.086 9.369)" fill="#1c358b"/>
    <path id="Path_1126" data-name="Path 1126" d="M302.8,25.839a.49.49,0,0,1-.177.324l-.7.94q-3.078,4.277-4.651,4.278a1.758,1.758,0,0,1-1.352-.575,2.071,2.071,0,0,1-.528-1.452,5.907,5.907,0,0,1,1.25-2.981,12.414,12.414,0,0,0,1.911-3.354.494.494,0,0,0-.55-.567q-.908,0-2.536,1.847a43.848,43.848,0,0,0-4.48,7.016,5.475,5.475,0,0,0-.924-.113,7.929,7.929,0,0,0-1.12.13l2.447-4.422q.5-.925,1.507-2.724.518-.859,3.274-5.572l2.494-4.248a4.909,4.909,0,0,0,.89.113,5.335,5.335,0,0,0,1.427-.227q-1.75,2.87-5.088,8.249-.1.162-2.738,4.131,3.078-4.554,4.908-4.554a1.6,1.6,0,0,1,1.289.625,2.29,2.29,0,0,1,.512,1.5,6.855,6.855,0,0,1-1.427,3.241,8.675,8.675,0,0,0-1.587,2.931c0,.423.193.633.583.633q1.2,0,4.082-4.035l.5-.7.29-.357a.305.305,0,0,1,.31-.21C302.741,25.709,302.8,25.753,302.8,25.839Z" transform="translate(214.932 4.374)" fill="#1c358b"/>
    <path id="Path_1127" data-name="Path 1127" d="M303.706,18.188v-.05a1.769,1.769,0,0,1,.647-1.084,1.511,1.511,0,0,1,1.117-.5.565.565,0,0,1,.57.68,3.154,3.154,0,0,1-1.12,1.88,4.341,4.341,0,0,1-1.587.94c-.163.064-.307.119-.437.16l-1.377,2.254q-1.862,3-1.864,3.855c0,.423.182.633.55.633q1.232,0,4.1-4.035l.517-.7.277-.357a.3.3,0,0,1,.274-.21c.152,0,.227.053.227.163a14.465,14.465,0,0,1-2.381,3.158q-1.991,2.352-3.175,2.351a1.665,1.665,0,0,1-1.289-.592,2.087,2.087,0,0,1-.528-1.435c0-.42-.025-.583-.08-.484a16.154,16.154,0,0,1-1.554,1.731,2.427,2.427,0,0,1-1.573.78,1.654,1.654,0,0,1-1.3-.575,2.084,2.084,0,0,1-.5-1.419,4.419,4.419,0,0,1,.727-2.171l3-5.025a5.285,5.285,0,0,0,.94.13,11.618,11.618,0,0,0,1.264-.144l-3.9,6.465a3.38,3.38,0,0,0-.6,1.7c0,.442.174.664.52.664q1.539,0,5.119-6.059l1.654-2.757a4.14,4.14,0,0,0,.89.13A6.713,6.713,0,0,0,303.706,18.188Zm-.454,1.443a2.323,2.323,0,0,1,.21-.113,3.015,3.015,0,0,0,.89-.683c0-.008-.011-.014-.033-.014a.7.7,0,0,1-.467-.2Z" transform="translate(222.485 8.426)" fill="#1c358b"/>
    <path id="Path_1128" data-name="Path 1128" d="M313.612,20.876a15.677,15.677,0,0,1-2.364,3.158q-1.962,2.352-3.128,2.351a1.679,1.679,0,0,1-1.314-.592,2.1,2.1,0,0,1-.517-1.435,3.093,3.093,0,0,1,.3-1.352,27,27,0,0,1,1.59-2.528,6.952,6.952,0,0,0,1.286-2.422.522.522,0,0,0-.584-.6q-2.265,0-7.226,8.783c-.584-.044-.924-.064-1.02-.064a10.316,10.316,0,0,0-1.247.08l2.591-4.1q2.157-3.4,2.157-4.275c0-.282-.1-.423-.293-.423q-.759,0-3.158,3.435a1.31,1.31,0,0,1-.293.277c-.16,0-.243-.055-.243-.163a.252.252,0,0,1,.066-.16l.307-.39q2.51-3.368,3.451-3.371a1.264,1.264,0,0,1,1.02.528,1.917,1.917,0,0,1,.423,1.239,5.431,5.431,0,0,1-1.427,2.851,28.121,28.121,0,0,1,2.948-3.62,3.023,3.023,0,0,1,1.994-1,1.612,1.612,0,0,1,1.3.608,2.252,2.252,0,0,1,.5,1.482,7.3,7.3,0,0,1-1.507,3.338,8.267,8.267,0,0,0-1.5,2.9c0,.4.183.6.55.6q1.377,0,4.861-5.088a.279.279,0,0,1,.274-.21C313.543,20.713,313.612,20.765,313.612,20.876Z" transform="translate(233.366 9.369)" fill="#1c358b"/>
    <path id="Path_1129" data-name="Path 1129" d="M320.615,20.876a10.011,10.011,0,0,1-1.767,2.251A19.442,19.442,0,0,1,313.759,27l-.777,1.46a20.542,20.542,0,0,1-4.933,6.269q-2.7,2.174-4.676,2.171a1.727,1.727,0,0,1-1.23-.437,1.422,1.422,0,0,1-.47-1.084q0-3.356,7.549-6.789,1.622-.73,2.06-.99L313.4,23.71a14.907,14.907,0,0,1-1.734,1.977,2.335,2.335,0,0,1-1.587.7,1.867,1.867,0,0,1-1.532-.78,2.912,2.912,0,0,1-.606-1.844q0-2.8,3.678-5.138a8.368,8.368,0,0,1,3.935-1.54q1.07,0,1.07,1.137c0,.194.066.086.2-.326l.387-.7a3.892,3.892,0,0,0,.843.13,11.166,11.166,0,0,0,1.394-.144q-.162.257-1.491,2.544l-3.891,6.689a17.518,17.518,0,0,0,3.072-2.129,23.275,23.275,0,0,0,2.859-3.2c.2-.249.362-.373.47-.373C320.565,20.757,320.615,20.81,320.615,20.876Zm-9.659,7.259c.011-.011-.489.235-1.5.744q-7.358,3.629-7.359,6.529a1.037,1.037,0,0,0,.357.8,1.237,1.237,0,0,0,.86.324,4.725,4.725,0,0,0,3.4-1.8,33.318,33.318,0,0,0,4.181-6.5Zm5.285-9.916c0-.509-.227-.763-.683-.763q-1.39,0-3.775,2.893T309.4,24.991q0,1.02.81,1.02.908,0,3.158-2.834Q316.24,19.531,316.24,18.219Z" transform="translate(237.4 9.369)" fill="#1c358b"/>
    <path id="Path_1130" data-name="Path 1130" d="M318.29,18.188v-.05a1.769,1.769,0,0,1,.647-1.084,1.511,1.511,0,0,1,1.117-.5.565.565,0,0,1,.57.68,3.154,3.154,0,0,1-1.12,1.88,4.341,4.341,0,0,1-1.587.94c-.163.064-.307.119-.437.16L316.1,22.466q-1.863,3-1.864,3.855c0,.423.183.633.55.633q1.232,0,4.1-4.035l.517-.7.277-.357a.3.3,0,0,1,.274-.21c.152,0,.227.053.227.163a14.464,14.464,0,0,1-2.381,3.158q-1.991,2.352-3.175,2.351a1.665,1.665,0,0,1-1.289-.592,2.087,2.087,0,0,1-.528-1.435c0-.42-.025-.583-.08-.484a16.16,16.16,0,0,1-1.554,1.731,2.427,2.427,0,0,1-1.574.78,1.654,1.654,0,0,1-1.3-.575,2.084,2.084,0,0,1-.5-1.419,4.419,4.419,0,0,1,.727-2.171l3-5.025a5.286,5.286,0,0,0,.94.13,11.619,11.619,0,0,0,1.264-.144l-3.9,6.465a3.38,3.38,0,0,0-.6,1.7c0,.442.174.664.52.664q1.539,0,5.118-6.059l1.654-2.757a4.141,4.141,0,0,0,.89.13A6.711,6.711,0,0,0,318.29,18.188Zm-.454,1.443a2.3,2.3,0,0,1,.21-.113,3.013,3.013,0,0,0,.89-.683c0-.008-.011-.014-.033-.014a.7.7,0,0,1-.467-.2Z" transform="translate(248.23 8.426)" fill="#1c358b"/>
    <path id="Path_1131" data-name="Path 1131" d="M320.4,23.173a8.7,8.7,0,0,1-1.911,4,1.2,1.2,0,0,0,.6.147,2.945,2.945,0,0,0,1.626-.664,6.251,6.251,0,0,0,1.565-1.6c.16-.185.285-.277.373-.277.119,0,.177.044.177.13,0,.183-.329.6-.987,1.247a4.06,4.06,0,0,1-2.707,1.457,1.927,1.927,0,0,1-.857-.16q-2.091,2.995-4.068,3a2.236,2.236,0,0,1-1.742-.827,2.884,2.884,0,0,1-.722-1.961q0-2.514,3.321-4.845a7.206,7.206,0,0,1,3.858-1.67A1.355,1.355,0,0,1,320.43,22.7v-.017c-.022.011.005-.011.08-.064a3,3,0,0,0,.907-.666c0-.008-.011-.014-.03-.014-.445-.044-.65-.271-.617-.683a1.769,1.769,0,0,1,.647-1.084,1.517,1.517,0,0,1,1.12-.5.564.564,0,0,1,.567.68,3.143,3.143,0,0,1-1.134,1.88,4.516,4.516,0,0,1-1.607.957C320.355,23.189,320.364,23.184,320.4,23.173Zm-.42-.437q0-1.249-1.087-1.247-1.394,0-3.49,2.793t-2.1,4.707q0,1.054.94,1.054,1.684,0,3.708-2.818a1.513,1.513,0,0,1-.47-1.07,2.809,2.809,0,0,1,.658-1.676,1.768,1.768,0,0,1,1.319-.868c.238,0,.368.033.39.1A2.527,2.527,0,0,0,319.976,22.736Zm1.247-3.081a.217.217,0,0,1-.21.13q-.469,0-1.134-1.214a11.8,11.8,0,0,1-1.037-2.61l1.7-1.181a5.793,5.793,0,0,0-.34,1.8,4.658,4.658,0,0,0,.874,2.851C321.174,19.528,321.224,19.6,321.224,19.655Z" transform="translate(255.18 5.306)" fill="#1c358b"/>
    <path id="Path_1132" data-name="Path 1132" d="M322.573,23.224c0,.053-.066.144-.194.274l-.683.957q-3.094,4.277-4.745,4.278a1.829,1.829,0,0,1-1.377-.559,1.95,1.95,0,0,1-.536-1.4,6.65,6.65,0,0,1,1.134-2.868l2.561-4.361a4.287,4.287,0,0,0,.86.13A11.076,11.076,0,0,0,321,19.529l-3.742,6.156a4.291,4.291,0,0,0-.794,2.01.579.579,0,0,0,.647.664q1.377,0,4.958-5.088a.3.3,0,0,1,.277-.21C322.5,23.061,322.573,23.113,322.573,23.224Zm-.243-6.709a1.573,1.573,0,0,1-.5,1.1,1.541,1.541,0,0,1-1.134.52c-.561,0-.843-.265-.843-.794a1.523,1.523,0,0,1,.52-1.07,1.6,1.6,0,0,1,1.15-.52C322.058,15.752,322.329,16.006,322.329,16.515Z" transform="translate(260.993 7.022)" fill="#1c358b"/>
    <path id="Path_1133" data-name="Path 1133" d="M333.689,20.876a15.76,15.76,0,0,1-2.367,3.158q-1.962,2.352-3.128,2.351a1.674,1.674,0,0,1-1.311-.592,2.107,2.107,0,0,1-.52-1.435,3.055,3.055,0,0,1,.3-1.352,26.177,26.177,0,0,1,1.587-2.528,6.982,6.982,0,0,0,1.289-2.422.524.524,0,0,0-.583-.6q-2.269,0-7.229,8.783c-.583-.044-.924-.064-1.02-.064a10.35,10.35,0,0,0-1.247.08l2.594-4.1q2.153-3.4,2.154-4.275c0-.282-.1-.423-.293-.423q-.759,0-3.158,3.435a1.255,1.255,0,0,1-.293.277c-.16,0-.243-.055-.243-.163a.252.252,0,0,1,.066-.16l.307-.39q2.514-3.368,3.451-3.371a1.264,1.264,0,0,1,1.02.528,1.918,1.918,0,0,1,.423,1.239,5.432,5.432,0,0,1-1.427,2.851,28.092,28.092,0,0,1,2.951-3.62,3.018,3.018,0,0,1,1.991-1,1.608,1.608,0,0,1,1.3.608,2.254,2.254,0,0,1,.5,1.482A7.334,7.334,0,0,1,329.3,22.51a8.243,8.243,0,0,0-1.507,2.9c0,.4.183.6.55.6q1.377,0,4.861-5.088a.281.281,0,0,1,.274-.21C333.617,20.713,333.689,20.765,333.689,20.876Z" transform="translate(268.803 9.369)" fill="#1c358b"/>
    <path id="Path_1134" data-name="Path 1134" d="M337.194,25.839a.5.5,0,0,1-.18.324l-.7.94q-3.078,4.277-4.649,4.278a1.759,1.759,0,0,1-1.355-.575,2.069,2.069,0,0,1-.525-1.452,5.9,5.9,0,0,1,1.247-2.981,12.466,12.466,0,0,0,1.914-3.354.5.5,0,0,0-.553-.567q-.9,0-2.536,1.847a44.234,44.234,0,0,0-4.48,7.016,5.446,5.446,0,0,0-.924-.113,7.857,7.857,0,0,0-1.117.13l2.447-4.422q.5-.925,1.507-2.724.518-.859,3.271-5.572l2.5-4.248a4.879,4.879,0,0,0,.891.113,5.333,5.333,0,0,0,1.424-.227q-1.746,2.87-5.085,8.249-.1.162-2.74,4.131,3.082-4.554,4.911-4.554a1.6,1.6,0,0,1,1.289.625,2.289,2.289,0,0,1,.509,1.5,6.871,6.871,0,0,1-1.424,3.241,8.707,8.707,0,0,0-1.59,2.931c0,.423.2.633.583.633q1.2,0,4.084-4.035l.5-.7.293-.357a.3.3,0,0,1,.307-.21C337.133,25.709,337.194,25.753,337.194,25.839Z" transform="translate(275.651 4.374)" fill="#1c358b"/>
    <path id="Path_1135" data-name="Path 1135" d="M340.7,24.95a15.672,15.672,0,0,1-2.364,3.158q-1.962,2.352-3.111,2.351a1.671,1.671,0,0,1-1.305-.575,2.109,2.109,0,0,1-.509-1.452q0-.875-.1-.7a12.37,12.37,0,0,1-1.659,1.905,2.61,2.61,0,0,1-1.742.819,1.881,1.881,0,0,1-1.532-.763,2.945,2.945,0,0,1-.606-1.894q0-3.161,4.422-5.558a7.105,7.105,0,0,1,3.191-1.087q1.1,0,1.1,1.037c0,.2.052.105.16-.274l.357-.65a4.433,4.433,0,0,0,.94.13,9.044,9.044,0,0,0,1.3-.144l-2.917,4.859a9.081,9.081,0,0,0-1.491,3.274c0,.465.174.7.52.7.376,0,1.037-.484,1.977-1.449A26.834,26.834,0,0,0,340.22,25a.3.3,0,0,1,.274-.21C340.635,24.787,340.7,24.84,340.7,24.95Zm-4.665-2.691c0-.487-.2-.73-.617-.73q-1.427,0-3.824,2.893T329.2,29.1q0,.987.81.987,1.07,0,3.791-3.661Q336.037,23.359,336.039,22.26Zm1.424-2.594a.215.215,0,0,1-.21.13q-.485,0-1.151-1.214a11.246,11.246,0,0,1-1.02-2.61l1.7-1.2a5.7,5.7,0,0,0-.357,1.814,4.661,4.661,0,0,0,.877,2.851C337.41,19.539,337.463,19.613,337.463,19.666Z" transform="translate(283.482 5.295)" fill="#1c358b"/>
    <path id="Path_1136" data-name="Path 1136" d="M338.049,14.933a3.777,3.777,0,0,1-1.2,2.414,6.95,6.95,0,0,1-1.255,1,2.546,2.546,0,0,1-1.109.495c-.141,0-.21-.055-.21-.163s.064-.16.194-.194q1.7-.631,1.7-1.394c0-.022-.022-.033-.064-.033-.561,0-.843-.252-.843-.76a2.119,2.119,0,0,1,.689-1.385,1.9,1.9,0,0,1,1.322-.738A.681.681,0,0,1,338.049,14.933Zm3.191,0a3.958,3.958,0,0,1-1.814,2.981,3.438,3.438,0,0,1-1.784.924c-.138,0-.21-.055-.21-.163q0-.1.39-.257a2.839,2.839,0,0,0,1.012-.617c.318-.293.478-.531.478-.713,0-.022-.017-.033-.05-.033-.539,0-.81-.243-.81-.727a2.165,2.165,0,0,1,.672-1.419,1.88,1.88,0,0,1,1.338-.738A.681.681,0,0,1,341.24,14.933Z" transform="translate(294.953 4.229)" fill="#1c358b"/>
  </g>
</svg>
